<mxfile host="app.diagrams.net" modified="2023-08-25T13:38:48.277Z" agent="Mozilla/5.0 (Windows NT 10.0; Win64; x64) AppleWebKit/537.36 (KHTML, like Gecko) Chrome/116.0.0.0 Safari/537.36" etag="ju90hHSFE-OON-FGUV2N" version="21.6.9" type="github">
  <diagram name="Page-1" id="gANemN08C5WNDBypf3lK">
    <mxGraphModel dx="2270" dy="744" grid="1" gridSize="10" guides="1" tooltips="1" connect="1" arrows="1" fold="1" page="1" pageScale="1" pageWidth="850" pageHeight="1100" math="0" shadow="0">
      <root>
        <mxCell id="0" />
        <mxCell id="1" parent="0" />
        <mxCell id="6FhlCnDprpqO6fDWK_Tm-2" value="" style="rounded=0;whiteSpace=wrap;html=1;fillColor=#FFFFFF;" parent="1" vertex="1">
          <mxGeometry x="-460" y="80" width="413" height="1177" as="geometry" />
        </mxCell>
        <mxCell id="6FhlCnDprpqO6fDWK_Tm-4" value="" style="rounded=0;whiteSpace=wrap;html=1;fillColor=#FFFFFF;" parent="1" vertex="1">
          <mxGeometry x="-37" y="80" width="413" height="1177" as="geometry" />
        </mxCell>
        <mxCell id="6FhlCnDprpqO6fDWK_Tm-5" value="" style="rounded=0;whiteSpace=wrap;html=1;fillColor=#FFFFFF;" parent="1" vertex="1">
          <mxGeometry x="390" y="1270" width="245" height="1458" as="geometry" />
        </mxCell>
        <mxCell id="6FhlCnDprpqO6fDWK_Tm-6" value="" style="rounded=0;whiteSpace=wrap;html=1;fillColor=#FFFFFF;" parent="1" vertex="1">
          <mxGeometry x="390" y="80" width="245" height="1177" as="geometry" />
        </mxCell>
        <mxCell id="6FhlCnDprpqO6fDWK_Tm-7" value="" style="whiteSpace=wrap;html=1;fillColor=#FFFFFF;" parent="1" vertex="1">
          <mxGeometry x="-459.5" y="1270" width="200" height="279" as="geometry" />
        </mxCell>
        <mxCell id="6FhlCnDprpqO6fDWK_Tm-8" value="" style="whiteSpace=wrap;html=1;fillColor=#FFFFFF;" parent="1" vertex="1">
          <mxGeometry x="-250" y="1270" width="626" height="279" as="geometry" />
        </mxCell>
        <mxCell id="6FhlCnDprpqO6fDWK_Tm-9" value="&lt;font style=&quot;font-size: 40px;&quot;&gt;Полка&lt;/font&gt;" style="text;strokeColor=none;fillColor=none;html=1;fontSize=24;fontStyle=1;verticalAlign=middle;align=center;" parent="1" vertex="1">
          <mxGeometry y="1389.5" width="100" height="40" as="geometry" />
        </mxCell>
        <mxCell id="6FhlCnDprpqO6fDWK_Tm-10" value="&lt;font style=&quot;font-size: 40px;&quot;&gt;Фасад&lt;/font&gt;" style="text;strokeColor=none;fillColor=none;html=1;fontSize=24;fontStyle=1;verticalAlign=middle;align=center;" parent="1" vertex="1">
          <mxGeometry x="-303.5" y="800" width="100" height="40" as="geometry" />
        </mxCell>
        <mxCell id="6FhlCnDprpqO6fDWK_Tm-11" value="&lt;font style=&quot;font-size: 40px;&quot;&gt;Фасад&lt;/font&gt;" style="text;strokeColor=none;fillColor=none;html=1;fontSize=24;fontStyle=1;verticalAlign=middle;align=center;" parent="1" vertex="1">
          <mxGeometry x="130" y="800" width="100" height="40" as="geometry" />
        </mxCell>
        <mxCell id="6FhlCnDprpqO6fDWK_Tm-12" value="&lt;font style=&quot;font-size: 40px;&quot;&gt;Фасад&lt;/font&gt;" style="text;strokeColor=none;fillColor=none;html=1;fontSize=24;fontStyle=1;verticalAlign=middle;align=center;" parent="1" vertex="1">
          <mxGeometry x="462.5" y="800" width="100" height="40" as="geometry" />
        </mxCell>
        <mxCell id="6FhlCnDprpqO6fDWK_Tm-13" value="&lt;font style=&quot;font-size: 40px;&quot;&gt;Фасад&lt;/font&gt;" style="text;strokeColor=none;fillColor=none;html=1;fontSize=24;fontStyle=1;verticalAlign=middle;align=center;" parent="1" vertex="1">
          <mxGeometry x="462.5" y="2070" width="100" height="40" as="geometry" />
        </mxCell>
        <mxCell id="6FhlCnDprpqO6fDWK_Tm-18" value="&lt;font style=&quot;font-size: 40px;&quot;&gt;Фасад&lt;/font&gt;" style="text;strokeColor=none;fillColor=none;html=1;fontSize=24;fontStyle=1;verticalAlign=middle;align=center;" parent="1" vertex="1">
          <mxGeometry x="-409.5" y="1389.5" width="100" height="40" as="geometry" />
        </mxCell>
        <mxCell id="6FhlCnDprpqO6fDWK_Tm-21" value="&lt;font style=&quot;font-size: 40px;&quot;&gt;1177 мм&lt;br&gt;&lt;/font&gt;" style="text;strokeColor=none;fillColor=none;html=1;fontSize=24;fontStyle=1;verticalAlign=middle;align=center;rotation=-90;" parent="1" vertex="1">
          <mxGeometry x="-560" y="700" width="100" height="40" as="geometry" />
        </mxCell>
        <mxCell id="6FhlCnDprpqO6fDWK_Tm-24" value="&lt;font style=&quot;font-size: 40px;&quot;&gt;413 мм&lt;br&gt;&lt;/font&gt;" style="text;strokeColor=none;fillColor=none;html=1;fontSize=24;fontStyle=1;verticalAlign=middle;align=center;rotation=0;" parent="1" vertex="1">
          <mxGeometry x="-303.5" y="20" width="100" height="40" as="geometry" />
        </mxCell>
        <mxCell id="6FhlCnDprpqO6fDWK_Tm-26" value="&lt;font style=&quot;font-size: 40px;&quot;&gt;413 мм&lt;br&gt;&lt;/font&gt;" style="text;strokeColor=none;fillColor=none;html=1;fontSize=24;fontStyle=1;verticalAlign=middle;align=center;rotation=0;" parent="1" vertex="1">
          <mxGeometry x="119.5" y="20" width="100" height="40" as="geometry" />
        </mxCell>
        <mxCell id="6FhlCnDprpqO6fDWK_Tm-27" value="&lt;font style=&quot;font-size: 40px;&quot;&gt;279 мм&lt;br&gt;&lt;/font&gt;" style="text;strokeColor=none;fillColor=none;html=1;fontSize=24;fontStyle=1;verticalAlign=middle;align=center;rotation=-90;" parent="1" vertex="1">
          <mxGeometry x="-560" y="1389.5" width="100" height="40" as="geometry" />
        </mxCell>
        <mxCell id="6FhlCnDprpqO6fDWK_Tm-28" value="&lt;font style=&quot;font-size: 40px;&quot;&gt;1458 мм&lt;br&gt;&lt;/font&gt;" style="text;strokeColor=none;fillColor=none;html=1;fontSize=24;fontStyle=1;verticalAlign=middle;align=center;rotation=90;" parent="1" vertex="1">
          <mxGeometry x="620" y="1979" width="100" height="40" as="geometry" />
        </mxCell>
        <mxCell id="6FhlCnDprpqO6fDWK_Tm-29" value="&lt;font style=&quot;font-size: 40px;&quot;&gt;200 мм&lt;br&gt;&lt;/font&gt;" style="text;strokeColor=none;fillColor=none;html=1;fontSize=24;fontStyle=1;verticalAlign=middle;align=center;rotation=0;" parent="1" vertex="1">
          <mxGeometry x="-410" y="1570" width="100" height="40" as="geometry" />
        </mxCell>
        <mxCell id="6FhlCnDprpqO6fDWK_Tm-30" value="&lt;font style=&quot;font-size: 40px;&quot;&gt;626 мм&lt;br&gt;&lt;/font&gt;" style="text;strokeColor=none;fillColor=none;html=1;fontSize=24;fontStyle=1;verticalAlign=middle;align=center;rotation=0;" parent="1" vertex="1">
          <mxGeometry x="13" y="1570" width="100" height="40" as="geometry" />
        </mxCell>
        <mxCell id="6FhlCnDprpqO6fDWK_Tm-31" value="&lt;font style=&quot;font-size: 40px;&quot;&gt;245 мм&lt;br&gt;&lt;/font&gt;" style="text;strokeColor=none;fillColor=none;html=1;fontSize=24;fontStyle=1;verticalAlign=middle;align=center;rotation=0;" parent="1" vertex="1">
          <mxGeometry x="462.5" y="20" width="100" height="40" as="geometry" />
        </mxCell>
        <mxCell id="6FhlCnDprpqO6fDWK_Tm-32" value="&lt;font style=&quot;font-size: 24px;&quot;&gt;Глубина: 200 мм&lt;/font&gt;" style="text;strokeColor=none;fillColor=none;html=1;fontSize=30;fontStyle=1;verticalAlign=middle;align=center;" parent="1" vertex="1">
          <mxGeometry y="1470" width="100" height="30" as="geometry" />
        </mxCell>
        <mxCell id="6FhlCnDprpqO6fDWK_Tm-33" value="&lt;font style=&quot;font-size: 30px;&quot;&gt;Фасад: МДФ матовый, холодный, бежевый, серый&lt;/font&gt;" style="text;strokeColor=none;fillColor=none;html=1;fontSize=24;fontStyle=1;verticalAlign=middle;align=center;" parent="1" vertex="1">
          <mxGeometry x="-190" y="1680" width="100" height="40" as="geometry" />
        </mxCell>
        <mxCell id="6FhlCnDprpqO6fDWK_Tm-39" value="&lt;font style=&quot;font-size: 30px;&quot;&gt;Полка: МДФ дерево, дуб, матовый, теплый. &lt;br&gt;С нишей сверху под диодную ленту&lt;/font&gt;" style="text;strokeColor=none;fillColor=none;html=1;fontSize=24;fontStyle=1;verticalAlign=middle;align=center;" parent="1" vertex="1">
          <mxGeometry x="-240" y="1750" width="100" height="40" as="geometry" />
        </mxCell>
      </root>
    </mxGraphModel>
  </diagram>
</mxfile>
